<svg width="91" height="36" viewBox="0 0 91 36" fill="none" xmlns="http://www.w3.org/2000/svg">
<path fill-rule="evenodd" clip-rule="evenodd" d="M42.9334 22.2364C43.2407 20.873 43.4028 19.4551 43.4028 17.9997C43.4028 16.5401 43.2398 15.1183 42.9307 13.7512C41.1356 14.3248 40.0286 15.9195 40.0286 18.003C40.0286 20.0722 41.1367 21.6642 42.9334 22.2364ZM44.2538 25.0945L44.2966 25.0955C44.3579 25.0969 44.4195 25.0976 44.4814 25.0976C47.0118 25.0976 49.2284 23.8307 50.3858 21.8816L48.0515 20.5368C47.4593 21.6245 46.276 22.337 44.8771 22.4505C45.2323 21.0249 45.4207 19.5342 45.4207 17.9998C45.4207 16.4606 45.2311 14.9654 44.8738 13.5359C46.2713 13.6487 47.4409 14.363 48.0515 15.4693L50.3858 14.1244C49.2088 12.1754 46.9922 10.9085 44.4814 10.9085C44.3212 10.9085 44.1627 10.9131 44.0061 10.9222C41.732 5.48341 36.9158 1.35593 31.0289 0C36.172 1.99849 40.2496 6.10571 42.1821 11.2501C39.2671 12.1597 37.3412 14.7918 37.3412 18.003C37.3412 21.198 39.2664 23.8392 42.1805 24.7537C40.2471 29.8965 36.1697 34.0023 31.0273 36C36.9127 34.645 41.7281 30.5199 44.0035 25.0837C44.0864 25.0885 44.1699 25.0922 44.2538 25.0945ZM73.0577 11.1813V19.5038L67.1729 11.1813H65.1254V11.1798L63.4093 11.1774L65.1132 12.5265V24.8247H67.8202V16.4828L73.705 24.8247H75.7646V11.1813H73.0577ZM11.9885 13.7541V11.1813H2.21612V11.1798L0.5 11.1774L2.00227 12.3668V24.8247H4.70926V19.5623H10.0448V16.9895H4.70926V13.7541H11.9885ZM20.4075 24.8247H23.3499L18.5244 11.1813H15.1701L15.1632 11.2007V11.1798L13.4471 11.1774L14.7954 12.2449L10.3642 24.8247H13.2869L14.1108 22.3689H19.5837L20.4075 24.8247ZM14.9739 19.8546L16.8571 14.2803L18.7401 19.8546L19.2185 21.1105L17.7059 19.8546H14.9739ZM36.9364 24.8247H33.6054L30.8396 20.0885H27.3902V24.8247H24.6832V12.5231L22.9836 11.1774L24.6997 11.1798V11.1813H31.5654C34.0958 11.1813 36.1359 13.2084 36.1359 15.7032C36.1359 17.4183 35.057 18.9581 33.4877 19.6792L36.9364 24.8247ZM31.5654 13.6956H27.3902V17.7302H31.5654C32.5854 17.7302 33.4289 16.8336 33.4289 15.7032C33.4289 14.5727 32.5854 13.6956 31.5654 13.6956ZM63.7467 24.8247H60.8043L59.9805 22.3689H54.5076L53.6838 24.8247H50.761L55.1975 12.2299L53.8683 11.1774L55.5844 11.1798V11.1813H58.9212L63.7467 24.8247ZM57.2539 14.2803L55.3707 19.8546H58.1027L59.6153 21.1105L59.1369 19.8546L57.2539 14.2803ZM87.139 24.8247H90.0814L85.2559 11.1813H81.9245V11.1798L80.2084 11.1774L81.5334 12.2265L77.0956 24.8247H80.0184L80.8423 22.3689H86.3151L87.139 24.8247ZM81.7054 19.8546L83.5885 14.2803L85.4716 19.8546L85.95 21.1105L84.4374 19.8546H81.7054Z" fill="#302F31"/>
</svg>
